<svg xmlns="http://www.w3.org/2000/svg" version="1.1" xmlns:xlink="http://www.w3.org/1999/xlink" xmlns:svgjs="http://svgjs.dev/svgjs" width="1000" height="1000" viewBox="0 0 1000 1000"><rect width="1000" height="1000" fill="#ffffff"></rect><g transform="matrix(0.7,0,0,0.7,149.57575898686122,445.46473680109875)"><svg viewBox="0 0 396 62" data-background-color="#ffffff" preserveAspectRatio="xMidYMid meet" height="156" width="1000" xmlns="http://www.w3.org/2000/svg" xmlns:xlink="http://www.w3.org/1999/xlink"><g id="tight-bounds" transform="matrix(1,0,0,1,0.2399992020289119,-0.03675532660165004)"><svg viewBox="0 0 395.52 62.07351065323276" height="62.07351065323276" width="395.52"><g><svg viewBox="0 0 461.39860955771155 72.41259988310931" height="62.07351065323276" width="395.52"><g transform="matrix(1,0,0,1,65.87860955771154,10.007819520748107)"><svg viewBox="0 0 395.52 52.396960841613094" height="52.396960841613094" width="395.52"><g id="textblocktransform"><svg viewBox="0 0 395.52 52.396960841613094" height="52.396960841613094" width="395.52" id="textblock"><g><svg viewBox="0 0 395.52 52.396960841613094" height="52.396960841613094" width="395.52"><g transform="matrix(1,0,0,1,0,0)"><svg width="395.52" viewBox="4.5 -33.400001525878906 259.2799987792969 34" height="52.396960841613094" data-palette-color="#6900c0"><g class="undefined-text-0" data-fill-palette-color="primary" id="text-0"><path d="M14.95 0L4.5 0 4.5-32.8 14.25-32.8Q16.75-32.8 18.82-32.35 20.9-31.9 22.38-30.95 23.85-30 24.68-28.48 25.5-26.95 25.5-24.8L25.5-24.8Q25.5-22.35 24.28-20.38 23.05-18.4 20.7-17.65L20.7-17.65 20.7-17.45Q23.7-16.9 25.55-14.95 27.4-13 27.4-9.6L27.4-9.6Q27.4-7.2 26.5-5.4 25.6-3.6 23.95-2.4 22.3-1.2 20-0.6 17.7 0 14.95 0L14.95 0ZM8.65-29.5L8.65-18.85 13.5-18.85Q17.7-18.85 19.55-20.3 21.4-21.75 21.4-24.25L21.4-24.25Q21.4-27.1 19.48-28.3 17.55-29.5 13.7-29.5L13.7-29.5 8.65-29.5ZM8.65-15.65L8.65-3.3 14.35-3.3Q18.6-3.3 20.95-4.88 23.3-6.45 23.3-9.75L23.3-9.75Q23.3-12.8 21-14.23 18.7-15.65 14.35-15.65L14.35-15.65 8.65-15.65ZM46 0.6L46 0.6Q42.9 0.6 40.32-0.6 37.75-1.8 35.9-4.03 34.05-6.25 33.02-9.43 32-12.6 32-16.55L32-16.55Q32-20.5 33.02-23.63 34.05-26.75 35.9-28.93 37.75-31.1 40.32-32.25 42.9-33.4 46-33.4L46-33.4Q49.1-33.4 51.67-32.23 54.25-31.05 56.12-28.88 58-26.7 59.02-23.58 60.05-20.45 60.05-16.55L60.05-16.55Q60.05-12.6 59.02-9.43 58-6.25 56.12-4.03 54.25-1.8 51.67-0.6 49.1 0.6 46 0.6ZM46-3.05L46-3.05Q48.2-3.05 49.97-4 51.75-4.95 53.02-6.73 54.3-8.5 55-10.98 55.7-13.45 55.7-16.55L55.7-16.55Q55.7-19.6 55-22.05 54.3-24.5 53.02-26.2 51.75-27.9 49.97-28.83 48.2-29.75 46-29.75L46-29.75Q43.8-29.75 42.02-28.83 40.25-27.9 38.97-26.2 37.7-24.5 37-22.05 36.3-19.6 36.3-16.55L36.3-16.55Q36.3-13.45 37-10.98 37.7-8.5 38.97-6.73 40.25-4.95 42.02-4 43.8-3.05 46-3.05ZM79.2 0.6L79.2 0.6Q76.09 0.6 73.52-0.6 70.95-1.8 69.09-4.03 67.25-6.25 66.22-9.43 65.2-12.6 65.2-16.55L65.2-16.55Q65.2-20.5 66.22-23.63 67.25-26.75 69.09-28.93 70.95-31.1 73.52-32.25 76.09-33.4 79.2-33.4L79.2-33.4Q82.3-33.4 84.87-32.23 87.45-31.05 89.32-28.88 91.2-26.7 92.22-23.58 93.25-20.45 93.25-16.55L93.25-16.55Q93.25-12.6 92.22-9.43 91.2-6.25 89.32-4.03 87.45-1.8 84.87-0.6 82.3 0.6 79.2 0.6ZM79.2-3.05L79.2-3.05Q81.4-3.05 83.17-4 84.95-4.95 86.22-6.73 87.5-8.5 88.2-10.98 88.9-13.45 88.9-16.55L88.9-16.55Q88.9-19.6 88.2-22.05 87.5-24.5 86.22-26.2 84.95-27.9 83.17-28.83 81.4-29.75 79.2-29.75L79.2-29.75Q77-29.75 75.22-28.83 73.45-27.9 72.17-26.2 70.9-24.5 70.2-22.05 69.5-19.6 69.5-16.55L69.5-16.55Q69.5-13.45 70.2-10.98 70.9-8.5 72.17-6.73 73.45-4.95 75.22-4 77-3.05 79.2-3.05ZM104.44 0L100.29 0 100.29-32.8 104.44-32.8 104.44-16.35 104.59-16.35 118.24-32.8 122.94-32.8 112.69-20.3 124.54 0 119.89 0 110.09-17.05 104.44-10.4 104.44 0ZM138.34 0.6L138.34 0.6Q134.89 0.6 131.94-0.7 128.99-2 126.84-4.25L126.84-4.25 129.34-7.15Q131.09-5.3 133.47-4.17 135.84-3.05 138.39-3.05L138.39-3.05Q141.64-3.05 143.44-4.53 145.24-6 145.24-8.4L145.24-8.4Q145.24-9.65 144.82-10.53 144.39-11.4 143.67-12.03 142.94-12.65 141.94-13.15 140.94-13.65 139.79-14.2L139.79-14.2 135.09-16.25Q133.94-16.75 132.74-17.45 131.54-18.15 130.59-19.15 129.64-20.15 129.04-21.53 128.44-22.9 128.44-24.7L128.44-24.7Q128.44-26.55 129.22-28.15 129.99-29.75 131.37-30.93 132.74-32.1 134.62-32.75 136.49-33.4 138.74-33.4L138.74-33.4Q141.69-33.4 144.19-32.27 146.69-31.15 148.44-29.35L148.44-29.35 146.19-26.65Q144.69-28.1 142.87-28.93 141.04-29.75 138.74-29.75L138.74-29.75Q135.99-29.75 134.32-28.48 132.64-27.2 132.64-24.95L132.64-24.95Q132.64-23.75 133.12-22.93 133.59-22.1 134.39-21.48 135.19-20.85 136.14-20.38 137.09-19.9 138.09-19.5L138.09-19.5 142.74-17.5Q144.14-16.9 145.39-16.13 146.64-15.35 147.54-14.33 148.44-13.3 148.97-11.93 149.49-10.55 149.49-8.75L149.49-8.75Q149.49-6.8 148.72-5.1 147.94-3.4 146.49-2.13 145.04-0.85 142.99-0.13 140.94 0.6 138.34 0.6ZM166.94 0L162.74 0 162.74-29.3 152.84-29.3 152.84-32.8 176.84-32.8 176.84-29.3 166.94-29.3 166.94 0ZM194.84 0.6L194.84 0.6Q191.74 0.6 189.16-0.6 186.59-1.8 184.74-4.03 182.89-6.25 181.86-9.43 180.84-12.6 180.84-16.55L180.84-16.55Q180.84-20.5 181.86-23.63 182.89-26.75 184.74-28.93 186.59-31.1 189.16-32.25 191.74-33.4 194.84-33.4L194.84-33.4Q197.94-33.4 200.51-32.23 203.09-31.05 204.96-28.88 206.84-26.7 207.86-23.58 208.89-20.45 208.89-16.55L208.89-16.55Q208.89-12.6 207.86-9.43 206.84-6.25 204.96-4.03 203.09-1.8 200.51-0.6 197.94 0.6 194.84 0.6ZM194.84-3.05L194.84-3.05Q197.04-3.05 198.81-4 200.59-4.95 201.86-6.73 203.14-8.5 203.84-10.98 204.54-13.45 204.54-16.55L204.54-16.55Q204.54-19.6 203.84-22.05 203.14-24.5 201.86-26.2 200.59-27.9 198.81-28.83 197.04-29.75 194.84-29.75L194.84-29.75Q192.64-29.75 190.86-28.83 189.09-27.9 187.81-26.2 186.54-24.5 185.84-22.05 185.14-19.6 185.14-16.55L185.14-16.55Q185.14-13.45 185.84-10.98 186.54-8.5 187.81-6.73 189.09-4.95 190.86-4 192.64-3.05 194.84-3.05ZM220.08 0L215.93 0 215.93-32.8 226.18-32.8Q228.68-32.8 230.81-32.33 232.93-31.85 234.46-30.75 235.98-29.65 236.83-27.9 237.68-26.15 237.68-23.6L237.68-23.6Q237.68-19.75 235.68-17.45 233.68-15.15 230.28-14.3L230.28-14.3 238.63 0 233.93 0 226.03-13.85 220.08-13.85 220.08 0ZM220.08-29.45L220.08-17.25 225.58-17.25Q229.43-17.25 231.48-18.82 233.53-20.4 233.53-23.6L233.53-23.6Q233.53-26.85 231.48-28.15 229.43-29.45 225.58-29.45L225.58-29.45 220.08-29.45ZM263.78 0L244.38 0 244.38-32.8 263.28-32.8 263.28-29.3 248.53-29.3 248.53-19 260.98-19 260.98-15.45 248.53-15.45 248.53-3.55 263.78-3.55 263.78 0Z" fill="#000000" data-fill-palette-color="primary"></path></g></svg></g></svg></g></svg></g></svg></g><g><svg viewBox="0 0 53.50894463006689 72.41259988310931" height="72.41259988310931" width="53.50894463006689"><g><svg version="1.1" xmlns="http://www.w3.org/2000/svg" xmlns:xlink="http://www.w3.org/1999/xlink" x="0" y="0" viewBox="0.00021628569811582565 0.0010000000474974513 73.89378356933594 99.9990005493164" enable-background="new 0 0 73.894 100" xml:space="preserve" width="53.50894463006689" height="72.41259988310931" class="icon-icon-0" data-fill-palette-color="accent" id="icon-0"><path fill="#000000" d="M68.759 0.001C57.947 0.087 0.009 0.112 0.009 0.112-0.062 40.059 0.32 69.361 0.345 94.308L3.916 100h69.978V8.259h-2.12c-1.046-1.082-3.714-5.468-3.684-5.468 0.254-0.001 0.304 0.035 2.79 0C70.88 2.791 69.134 0.483 68.759 0.001L68.759 0.001zM28.022 2.792c13.441-0.036 28.818-0.054 36.496 0 0 0.053 3.412 5.219 3.683 5.469L6.482 7.813l-3.46-4.911C3.022 2.903 14.582 2.821 28.022 2.792L28.022 2.792zM10.835 11.497h5.134v86.049h-5.134V11.497z" data-fill-palette-color="accent"></path></svg></g></svg></g></svg></g><defs></defs></svg><rect width="395.52" height="62.07351065323276" fill="none" stroke="none" visibility="hidden"></rect></g></svg></g></svg>